<mxfile host="app.diagrams.net" modified="2024-01-28T14:49:23.852Z" agent="Mozilla/5.0 (Windows NT 10.0; Win64; x64) AppleWebKit/537.36 (KHTML, like Gecko) Chrome/120.0.0.0 Safari/537.36" etag="Cm76FWyv4xgWQNACHufF" version="23.0.1" type="device">
  <diagram id="C5RBs43oDa-KdzZeNtuy" name="Page-1">
    <mxGraphModel dx="2261" dy="1915" grid="1" gridSize="10" guides="1" tooltips="1" connect="1" arrows="1" fold="1" page="1" pageScale="1" pageWidth="827" pageHeight="1169" math="0" shadow="0">
      <root>
        <mxCell id="WIyWlLk6GJQsqaUBKTNV-0" />
        <mxCell id="WIyWlLk6GJQsqaUBKTNV-1" parent="WIyWlLk6GJQsqaUBKTNV-0" />
        <mxCell id="ol4VCV9P4sQ5v68sOLEQ-83" style="edgeStyle=orthogonalEdgeStyle;rounded=0;orthogonalLoop=1;jettySize=auto;html=1;entryX=0.5;entryY=0;entryDx=0;entryDy=0;" parent="WIyWlLk6GJQsqaUBKTNV-1" source="WIyWlLk6GJQsqaUBKTNV-3" target="ol4VCV9P4sQ5v68sOLEQ-82" edge="1">
          <mxGeometry relative="1" as="geometry" />
        </mxCell>
        <mxCell id="WIyWlLk6GJQsqaUBKTNV-3" value="Players escort Alan and are ambushed." style="rounded=1;whiteSpace=wrap;html=1;fontSize=12;glass=0;strokeWidth=1;shadow=0;" parent="WIyWlLk6GJQsqaUBKTNV-1" vertex="1">
          <mxGeometry x="290" y="-10" width="140" height="60" as="geometry" />
        </mxCell>
        <mxCell id="WIyWlLk6GJQsqaUBKTNV-4" value="" style="rounded=0;html=1;jettySize=auto;orthogonalLoop=1;fontSize=11;endArrow=block;endFill=0;endSize=8;strokeWidth=1;shadow=0;labelBackgroundColor=none;edgeStyle=orthogonalEdgeStyle;" parent="WIyWlLk6GJQsqaUBKTNV-1" source="WIyWlLk6GJQsqaUBKTNV-6" edge="1">
          <mxGeometry x="0.0063" y="39" relative="1" as="geometry">
            <mxPoint y="-1" as="offset" />
            <mxPoint x="360" y="310" as="targetPoint" />
          </mxGeometry>
        </mxCell>
        <mxCell id="ol4VCV9P4sQ5v68sOLEQ-30" value="Option A" style="edgeLabel;html=1;align=center;verticalAlign=middle;resizable=0;points=[];" parent="WIyWlLk6GJQsqaUBKTNV-4" vertex="1" connectable="0">
          <mxGeometry x="-0.205" relative="1" as="geometry">
            <mxPoint x="30" as="offset" />
          </mxGeometry>
        </mxCell>
        <mxCell id="WIyWlLk6GJQsqaUBKTNV-5" value="" style="edgeStyle=orthogonalEdgeStyle;rounded=0;html=1;jettySize=auto;orthogonalLoop=1;fontSize=11;endArrow=block;endFill=0;endSize=8;strokeWidth=1;shadow=0;labelBackgroundColor=none;" parent="WIyWlLk6GJQsqaUBKTNV-1" source="WIyWlLk6GJQsqaUBKTNV-6" target="WIyWlLk6GJQsqaUBKTNV-7" edge="1">
          <mxGeometry y="10" relative="1" as="geometry">
            <mxPoint as="offset" />
          </mxGeometry>
        </mxCell>
        <mxCell id="ol4VCV9P4sQ5v68sOLEQ-29" value="Option B" style="edgeLabel;html=1;align=center;verticalAlign=middle;resizable=0;points=[];" parent="WIyWlLk6GJQsqaUBKTNV-5" vertex="1" connectable="0">
          <mxGeometry x="-0.2377" y="-4" relative="1" as="geometry">
            <mxPoint y="6" as="offset" />
          </mxGeometry>
        </mxCell>
        <mxCell id="WIyWlLk6GJQsqaUBKTNV-6" value="&lt;br&gt;What do they do?" style="rhombus;whiteSpace=wrap;html=1;shadow=0;fontFamily=Helvetica;fontSize=12;align=center;strokeWidth=1;spacing=6;spacingTop=-4;" parent="WIyWlLk6GJQsqaUBKTNV-1" vertex="1">
          <mxGeometry x="310" y="150" width="100" height="80" as="geometry" />
        </mxCell>
        <mxCell id="ol4VCV9P4sQ5v68sOLEQ-33" style="edgeStyle=orthogonalEdgeStyle;rounded=0;orthogonalLoop=1;jettySize=auto;html=1;entryX=0.5;entryY=0;entryDx=0;entryDy=0;" parent="WIyWlLk6GJQsqaUBKTNV-1" source="WIyWlLk6GJQsqaUBKTNV-7" target="ol4VCV9P4sQ5v68sOLEQ-31" edge="1">
          <mxGeometry relative="1" as="geometry" />
        </mxCell>
        <mxCell id="ol4VCV9P4sQ5v68sOLEQ-56" value="Bring me the lamp&lt;br&gt;to cure the curse" style="edgeLabel;html=1;align=center;verticalAlign=middle;resizable=0;points=[];" parent="ol4VCV9P4sQ5v68sOLEQ-33" vertex="1" connectable="0">
          <mxGeometry x="0.0858" y="1" relative="1" as="geometry">
            <mxPoint x="149" y="-72" as="offset" />
          </mxGeometry>
        </mxCell>
        <mxCell id="WIyWlLk6GJQsqaUBKTNV-7" value="Witch" style="rounded=1;whiteSpace=wrap;html=1;fontSize=12;glass=0;strokeWidth=1;shadow=0;" parent="WIyWlLk6GJQsqaUBKTNV-1" vertex="1">
          <mxGeometry x="680" y="380" width="120" height="30" as="geometry" />
        </mxCell>
        <mxCell id="ol4VCV9P4sQ5v68sOLEQ-10" style="edgeStyle=orthogonalEdgeStyle;rounded=0;orthogonalLoop=1;jettySize=auto;html=1;entryX=1;entryY=0.5;entryDx=0;entryDy=0;" parent="WIyWlLk6GJQsqaUBKTNV-1" source="ol4VCV9P4sQ5v68sOLEQ-1" target="ol4VCV9P4sQ5v68sOLEQ-9" edge="1">
          <mxGeometry relative="1" as="geometry" />
        </mxCell>
        <mxCell id="ol4VCV9P4sQ5v68sOLEQ-11" style="edgeStyle=orthogonalEdgeStyle;rounded=0;orthogonalLoop=1;jettySize=auto;html=1;exitX=0;exitY=1;exitDx=0;exitDy=0;entryX=0.5;entryY=0;entryDx=0;entryDy=0;" parent="WIyWlLk6GJQsqaUBKTNV-1" source="ol4VCV9P4sQ5v68sOLEQ-1" target="ol4VCV9P4sQ5v68sOLEQ-4" edge="1">
          <mxGeometry relative="1" as="geometry" />
        </mxCell>
        <mxCell id="ol4VCV9P4sQ5v68sOLEQ-12" style="edgeStyle=orthogonalEdgeStyle;rounded=0;orthogonalLoop=1;jettySize=auto;html=1;exitX=0.25;exitY=1;exitDx=0;exitDy=0;entryX=0.5;entryY=0;entryDx=0;entryDy=0;" parent="WIyWlLk6GJQsqaUBKTNV-1" source="ol4VCV9P4sQ5v68sOLEQ-1" target="ol4VCV9P4sQ5v68sOLEQ-5" edge="1">
          <mxGeometry relative="1" as="geometry" />
        </mxCell>
        <mxCell id="ol4VCV9P4sQ5v68sOLEQ-13" style="edgeStyle=orthogonalEdgeStyle;rounded=0;orthogonalLoop=1;jettySize=auto;html=1;entryX=0.5;entryY=0;entryDx=0;entryDy=0;" parent="WIyWlLk6GJQsqaUBKTNV-1" source="ol4VCV9P4sQ5v68sOLEQ-1" target="ol4VCV9P4sQ5v68sOLEQ-7" edge="1">
          <mxGeometry relative="1" as="geometry" />
        </mxCell>
        <mxCell id="ol4VCV9P4sQ5v68sOLEQ-15" style="edgeStyle=orthogonalEdgeStyle;rounded=0;orthogonalLoop=1;jettySize=auto;html=1;exitX=1;exitY=1;exitDx=0;exitDy=0;entryX=0.5;entryY=0;entryDx=0;entryDy=0;" parent="WIyWlLk6GJQsqaUBKTNV-1" source="ol4VCV9P4sQ5v68sOLEQ-1" target="ol4VCV9P4sQ5v68sOLEQ-8" edge="1">
          <mxGeometry relative="1" as="geometry" />
        </mxCell>
        <mxCell id="ol4VCV9P4sQ5v68sOLEQ-1" value="Town" style="rounded=1;whiteSpace=wrap;html=1;glass=0;fillColor=#f5f5f5;fontColor=#333333;strokeColor=#666666;" parent="WIyWlLk6GJQsqaUBKTNV-1" vertex="1">
          <mxGeometry x="245" y="310" width="230" height="30" as="geometry" />
        </mxCell>
        <mxCell id="ol4VCV9P4sQ5v68sOLEQ-18" style="edgeStyle=orthogonalEdgeStyle;rounded=0;orthogonalLoop=1;jettySize=auto;html=1;entryX=0.5;entryY=0;entryDx=0;entryDy=0;" parent="WIyWlLk6GJQsqaUBKTNV-1" source="ol4VCV9P4sQ5v68sOLEQ-4" target="ol4VCV9P4sQ5v68sOLEQ-16" edge="1">
          <mxGeometry relative="1" as="geometry" />
        </mxCell>
        <mxCell id="ol4VCV9P4sQ5v68sOLEQ-103" style="edgeStyle=orthogonalEdgeStyle;rounded=0;orthogonalLoop=1;jettySize=auto;html=1;entryX=1;entryY=0.5;entryDx=0;entryDy=0;" parent="WIyWlLk6GJQsqaUBKTNV-1" source="ol4VCV9P4sQ5v68sOLEQ-4" target="ol4VCV9P4sQ5v68sOLEQ-99" edge="1">
          <mxGeometry relative="1" as="geometry" />
        </mxCell>
        <mxCell id="ol4VCV9P4sQ5v68sOLEQ-4" value="❗ Church Sidequest" style="rounded=1;whiteSpace=wrap;html=1;" parent="WIyWlLk6GJQsqaUBKTNV-1" vertex="1">
          <mxGeometry x="50" y="380" width="120" height="32.5" as="geometry" />
        </mxCell>
        <mxCell id="ol4VCV9P4sQ5v68sOLEQ-23" style="edgeStyle=orthogonalEdgeStyle;rounded=0;orthogonalLoop=1;jettySize=auto;html=1;entryX=0.25;entryY=0;entryDx=0;entryDy=0;" parent="WIyWlLk6GJQsqaUBKTNV-1" source="ol4VCV9P4sQ5v68sOLEQ-5" target="ol4VCV9P4sQ5v68sOLEQ-21" edge="1">
          <mxGeometry relative="1" as="geometry" />
        </mxCell>
        <mxCell id="ol4VCV9P4sQ5v68sOLEQ-5" value="❗ Merchant Sidequest" style="rounded=1;whiteSpace=wrap;html=1;" parent="WIyWlLk6GJQsqaUBKTNV-1" vertex="1">
          <mxGeometry x="200" y="380" width="130" height="32.5" as="geometry" />
        </mxCell>
        <mxCell id="ol4VCV9P4sQ5v68sOLEQ-22" style="edgeStyle=orthogonalEdgeStyle;rounded=0;orthogonalLoop=1;jettySize=auto;html=1;entryX=0.75;entryY=0;entryDx=0;entryDy=0;" parent="WIyWlLk6GJQsqaUBKTNV-1" source="ol4VCV9P4sQ5v68sOLEQ-7" target="ol4VCV9P4sQ5v68sOLEQ-21" edge="1">
          <mxGeometry relative="1" as="geometry" />
        </mxCell>
        <mxCell id="ol4VCV9P4sQ5v68sOLEQ-7" value="❗ Bard&lt;br&gt;Get the accordion" style="rounded=1;whiteSpace=wrap;html=1;" parent="WIyWlLk6GJQsqaUBKTNV-1" vertex="1">
          <mxGeometry x="360" y="380" width="120" height="32.5" as="geometry" />
        </mxCell>
        <mxCell id="ol4VCV9P4sQ5v68sOLEQ-78" style="edgeStyle=orthogonalEdgeStyle;rounded=0;orthogonalLoop=1;jettySize=auto;html=1;entryX=0;entryY=0.5;entryDx=0;entryDy=0;exitX=0.5;exitY=1;exitDx=0;exitDy=0;" parent="WIyWlLk6GJQsqaUBKTNV-1" source="ol4VCV9P4sQ5v68sOLEQ-8" target="ol4VCV9P4sQ5v68sOLEQ-31" edge="1">
          <mxGeometry relative="1" as="geometry">
            <Array as="points">
              <mxPoint x="590" y="413" />
              <mxPoint x="590" y="615" />
            </Array>
          </mxGeometry>
        </mxCell>
        <mxCell id="ol4VCV9P4sQ5v68sOLEQ-108" style="edgeStyle=orthogonalEdgeStyle;rounded=0;orthogonalLoop=1;jettySize=auto;html=1;entryX=0.5;entryY=0;entryDx=0;entryDy=0;exitX=0.25;exitY=1;exitDx=0;exitDy=0;" parent="WIyWlLk6GJQsqaUBKTNV-1" source="ol4VCV9P4sQ5v68sOLEQ-8" target="ol4VCV9P4sQ5v68sOLEQ-107" edge="1">
          <mxGeometry relative="1" as="geometry">
            <mxPoint x="540" y="410" as="sourcePoint" />
            <mxPoint x="80" y="736.25" as="targetPoint" />
            <Array as="points">
              <mxPoint x="550" y="413" />
              <mxPoint x="550" y="620" />
              <mxPoint x="110" y="620" />
            </Array>
          </mxGeometry>
        </mxCell>
        <mxCell id="ol4VCV9P4sQ5v68sOLEQ-8" value="❗ Mansion&amp;nbsp;(mention + sidequest)" style="rounded=1;whiteSpace=wrap;html=1;" parent="WIyWlLk6GJQsqaUBKTNV-1" vertex="1">
          <mxGeometry x="510" y="380" width="120" height="32.5" as="geometry" />
        </mxCell>
        <mxCell id="ol4VCV9P4sQ5v68sOLEQ-9" value="Other&amp;nbsp;&quot;if&quot; events" style="rounded=1;whiteSpace=wrap;html=1;" parent="WIyWlLk6GJQsqaUBKTNV-1" vertex="1">
          <mxGeometry x="50" y="308.75" width="120" height="32.5" as="geometry" />
        </mxCell>
        <mxCell id="ol4VCV9P4sQ5v68sOLEQ-16" value="Dead Priest" style="rounded=1;whiteSpace=wrap;html=1;" parent="WIyWlLk6GJQsqaUBKTNV-1" vertex="1">
          <mxGeometry x="75" y="440" width="70" height="32.5" as="geometry" />
        </mxCell>
        <mxCell id="ol4VCV9P4sQ5v68sOLEQ-28" style="edgeStyle=orthogonalEdgeStyle;rounded=0;orthogonalLoop=1;jettySize=auto;html=1;entryX=0.5;entryY=0;entryDx=0;entryDy=0;" parent="WIyWlLk6GJQsqaUBKTNV-1" source="ol4VCV9P4sQ5v68sOLEQ-21" target="ol4VCV9P4sQ5v68sOLEQ-27" edge="1">
          <mxGeometry relative="1" as="geometry" />
        </mxCell>
        <mxCell id="ol4VCV9P4sQ5v68sOLEQ-21" value="Goblin Hideout&lt;br&gt;Retrieve items" style="rounded=1;whiteSpace=wrap;html=1;" parent="WIyWlLk6GJQsqaUBKTNV-1" vertex="1">
          <mxGeometry x="280" y="472.5" width="124" height="33" as="geometry" />
        </mxCell>
        <mxCell id="ol4VCV9P4sQ5v68sOLEQ-27" value="Bard Favor!" style="rounded=1;whiteSpace=wrap;html=1;fillColor=#d5e8d4;strokeColor=#82b366;" parent="WIyWlLk6GJQsqaUBKTNV-1" vertex="1">
          <mxGeometry x="282" y="540" width="120" height="30" as="geometry" />
        </mxCell>
        <mxCell id="uYWX3WhNX286cdWwJg3D-10" style="edgeStyle=orthogonalEdgeStyle;rounded=0;orthogonalLoop=1;jettySize=auto;html=1;entryX=0.5;entryY=0;entryDx=0;entryDy=0;" edge="1" parent="WIyWlLk6GJQsqaUBKTNV-1" source="ol4VCV9P4sQ5v68sOLEQ-31" target="uYWX3WhNX286cdWwJg3D-9">
          <mxGeometry relative="1" as="geometry" />
        </mxCell>
        <mxCell id="uYWX3WhNX286cdWwJg3D-13" style="edgeStyle=orthogonalEdgeStyle;rounded=0;orthogonalLoop=1;jettySize=auto;html=1;entryX=0;entryY=0.5;entryDx=0;entryDy=0;" edge="1" parent="WIyWlLk6GJQsqaUBKTNV-1" source="ol4VCV9P4sQ5v68sOLEQ-31" target="uYWX3WhNX286cdWwJg3D-12">
          <mxGeometry relative="1" as="geometry" />
        </mxCell>
        <mxCell id="ol4VCV9P4sQ5v68sOLEQ-31" value="Graveyard" style="rounded=1;whiteSpace=wrap;html=1;" parent="WIyWlLk6GJQsqaUBKTNV-1" vertex="1">
          <mxGeometry x="680" y="598.5" width="120" height="32.5" as="geometry" />
        </mxCell>
        <mxCell id="ol4VCV9P4sQ5v68sOLEQ-86" style="edgeStyle=orthogonalEdgeStyle;rounded=0;orthogonalLoop=1;jettySize=auto;html=1;entryX=1;entryY=0.5;entryDx=0;entryDy=0;exitX=0.5;exitY=1;exitDx=0;exitDy=0;" parent="WIyWlLk6GJQsqaUBKTNV-1" source="ol4VCV9P4sQ5v68sOLEQ-73" target="ol4VCV9P4sQ5v68sOLEQ-85" edge="1">
          <mxGeometry relative="1" as="geometry" />
        </mxCell>
        <mxCell id="ol4VCV9P4sQ5v68sOLEQ-73" value="Witch Home Ransacked; find note" style="rounded=1;whiteSpace=wrap;html=1;" parent="WIyWlLk6GJQsqaUBKTNV-1" vertex="1">
          <mxGeometry x="680" y="770" width="120" height="32.5" as="geometry" />
        </mxCell>
        <mxCell id="ol4VCV9P4sQ5v68sOLEQ-79" value="To get curse powers,&lt;br&gt;find me the lamp.&lt;br&gt;Find me after you clean&lt;br&gt;my house." style="edgeLabel;html=1;align=center;verticalAlign=middle;resizable=0;points=[];" parent="WIyWlLk6GJQsqaUBKTNV-1" vertex="1" connectable="0">
          <mxGeometry x="660" y="505.5000000000002" as="geometry" />
        </mxCell>
        <mxCell id="ol4VCV9P4sQ5v68sOLEQ-81" value="&lt;i&gt;&lt;font color=&quot;#cc0000&quot;&gt;Switch:&lt;br&gt;Witch Home -&amp;gt; Witch Home Ransacked&lt;br&gt;&lt;/font&gt;&lt;/i&gt;" style="text;html=1;align=center;verticalAlign=middle;resizable=0;points=[];autosize=1;strokeColor=none;fillColor=none;" parent="WIyWlLk6GJQsqaUBKTNV-1" vertex="1">
          <mxGeometry x="800" y="676.25" width="240" height="40" as="geometry" />
        </mxCell>
        <mxCell id="ol4VCV9P4sQ5v68sOLEQ-84" style="edgeStyle=orthogonalEdgeStyle;rounded=0;orthogonalLoop=1;jettySize=auto;html=1;entryX=0.5;entryY=0;entryDx=0;entryDy=0;" parent="WIyWlLk6GJQsqaUBKTNV-1" source="ol4VCV9P4sQ5v68sOLEQ-82" target="WIyWlLk6GJQsqaUBKTNV-6" edge="1">
          <mxGeometry relative="1" as="geometry" />
        </mxCell>
        <mxCell id="ol4VCV9P4sQ5v68sOLEQ-82" value="Players have curse!" style="rounded=1;whiteSpace=wrap;html=1;fontSize=12;glass=0;strokeWidth=1;shadow=0;fillColor=#d5e8d4;strokeColor=#82b366;" parent="WIyWlLk6GJQsqaUBKTNV-1" vertex="1">
          <mxGeometry x="290" y="80" width="140" height="40" as="geometry" />
        </mxCell>
        <mxCell id="ol4VCV9P4sQ5v68sOLEQ-95" style="edgeStyle=orthogonalEdgeStyle;rounded=0;orthogonalLoop=1;jettySize=auto;html=1;entryX=0;entryY=0.5;entryDx=0;entryDy=0;exitX=0.5;exitY=1;exitDx=0;exitDy=0;" parent="WIyWlLk6GJQsqaUBKTNV-1" source="ol4VCV9P4sQ5v68sOLEQ-85" target="ol4VCV9P4sQ5v68sOLEQ-93" edge="1">
          <mxGeometry relative="1" as="geometry" />
        </mxCell>
        <mxCell id="ol4VCV9P4sQ5v68sOLEQ-85" value="Detour to Town" style="rounded=1;whiteSpace=wrap;html=1;fillColor=#f5f5f5;fontColor=#333333;strokeColor=#666666;" parent="WIyWlLk6GJQsqaUBKTNV-1" vertex="1">
          <mxGeometry x="480" y="820" width="120" height="32.5" as="geometry" />
        </mxCell>
        <mxCell id="ol4VCV9P4sQ5v68sOLEQ-96" style="edgeStyle=orthogonalEdgeStyle;rounded=0;orthogonalLoop=1;jettySize=auto;html=1;entryX=0.5;entryY=0;entryDx=0;entryDy=0;" parent="WIyWlLk6GJQsqaUBKTNV-1" source="ol4VCV9P4sQ5v68sOLEQ-93" target="ol4VCV9P4sQ5v68sOLEQ-94" edge="1">
          <mxGeometry relative="1" as="geometry" />
        </mxCell>
        <mxCell id="ol4VCV9P4sQ5v68sOLEQ-93" value="Witch house;&lt;br&gt;Ritual" style="rounded=1;whiteSpace=wrap;html=1;" parent="WIyWlLk6GJQsqaUBKTNV-1" vertex="1">
          <mxGeometry x="680" y="882.49" width="120" height="32.5" as="geometry" />
        </mxCell>
        <mxCell id="ol4VCV9P4sQ5v68sOLEQ-94" value="Curse removed." style="rounded=1;whiteSpace=wrap;html=1;fillColor=#dae8fc;strokeColor=#6c8ebf;" parent="WIyWlLk6GJQsqaUBKTNV-1" vertex="1">
          <mxGeometry x="680" y="1093.75" width="120" height="32.5" as="geometry" />
        </mxCell>
        <mxCell id="ol4VCV9P4sQ5v68sOLEQ-99" value="Church Event" style="rounded=1;whiteSpace=wrap;html=1;" parent="WIyWlLk6GJQsqaUBKTNV-1" vertex="1">
          <mxGeometry x="-140" y="380" width="120" height="32.5" as="geometry" />
        </mxCell>
        <mxCell id="ol4VCV9P4sQ5v68sOLEQ-100" value="&lt;i&gt;&lt;font color=&quot;#cc0000&quot;&gt;Stateless location&lt;/font&gt;&lt;/i&gt;" style="text;html=1;align=center;verticalAlign=middle;resizable=0;points=[];autosize=1;" parent="WIyWlLk6GJQsqaUBKTNV-1" vertex="1">
          <mxGeometry x="45" y="472.5" width="120" height="30" as="geometry" />
        </mxCell>
        <mxCell id="ol4VCV9P4sQ5v68sOLEQ-104" value="If a few&lt;br&gt;days passed" style="text;html=1;align=center;verticalAlign=middle;resizable=0;points=[];autosize=1;strokeColor=none;fillColor=none;" parent="WIyWlLk6GJQsqaUBKTNV-1" vertex="1">
          <mxGeometry x="-30" y="390" width="90" height="40" as="geometry" />
        </mxCell>
        <mxCell id="ol4VCV9P4sQ5v68sOLEQ-105" value="&lt;i&gt;&lt;font color=&quot;#cc0000&quot;&gt;Note: Try to have as many&lt;br&gt;stateless locations as possible,&lt;br&gt;with ifs&lt;br&gt;&lt;/font&gt;&lt;/i&gt;" style="text;html=1;align=center;verticalAlign=middle;resizable=0;points=[];autosize=1;" parent="WIyWlLk6GJQsqaUBKTNV-1" vertex="1">
          <mxGeometry x="15" y="120" width="190" height="60" as="geometry" />
        </mxCell>
        <mxCell id="ol4VCV9P4sQ5v68sOLEQ-106" value="&lt;i&gt;&lt;font color=&quot;#cc0000&quot;&gt;Stateless location&lt;br&gt;&lt;/font&gt;&lt;/i&gt;" style="text;html=1;align=center;verticalAlign=middle;resizable=0;points=[];autosize=1;strokeColor=none;fillColor=none;" parent="WIyWlLk6GJQsqaUBKTNV-1" vertex="1">
          <mxGeometry x="800" y="882.49" width="120" height="30" as="geometry" />
        </mxCell>
        <mxCell id="ol4VCV9P4sQ5v68sOLEQ-132" style="edgeStyle=orthogonalEdgeStyle;rounded=0;orthogonalLoop=1;jettySize=auto;html=1;entryX=1;entryY=0.5;entryDx=0;entryDy=0;" parent="WIyWlLk6GJQsqaUBKTNV-1" source="ol4VCV9P4sQ5v68sOLEQ-107" target="ol4VCV9P4sQ5v68sOLEQ-131" edge="1">
          <mxGeometry relative="1" as="geometry">
            <Array as="points">
              <mxPoint x="110" y="899" />
              <mxPoint x="10" y="899" />
            </Array>
          </mxGeometry>
        </mxCell>
        <mxCell id="ol4VCV9P4sQ5v68sOLEQ-107" value="Mansion; clear;&lt;br&gt;Vampire dialogue" style="rounded=1;whiteSpace=wrap;html=1;" parent="WIyWlLk6GJQsqaUBKTNV-1" vertex="1">
          <mxGeometry x="45" y="738.75" width="130" height="41.25" as="geometry" />
        </mxCell>
        <mxCell id="ol4VCV9P4sQ5v68sOLEQ-130" style="edgeStyle=orthogonalEdgeStyle;rounded=0;orthogonalLoop=1;jettySize=auto;html=1;entryX=0.5;entryY=0;entryDx=0;entryDy=0;" parent="WIyWlLk6GJQsqaUBKTNV-1" source="ol4VCV9P4sQ5v68sOLEQ-111" target="ol4VCV9P4sQ5v68sOLEQ-112" edge="1">
          <mxGeometry relative="1" as="geometry" />
        </mxCell>
        <mxCell id="ol4VCV9P4sQ5v68sOLEQ-111" value="Players have lamp?" style="rounded=1;whiteSpace=wrap;html=1;fillColor=#d5e8d4;strokeColor=#82b366;" parent="WIyWlLk6GJQsqaUBKTNV-1" vertex="1">
          <mxGeometry x="235" y="992.5" width="120" height="32.5" as="geometry" />
        </mxCell>
        <mxCell id="ol4VCV9P4sQ5v68sOLEQ-112" value="Curse powers" style="rounded=1;whiteSpace=wrap;html=1;fillColor=#dae8fc;strokeColor=#6c8ebf;" parent="WIyWlLk6GJQsqaUBKTNV-1" vertex="1">
          <mxGeometry x="235" y="1093.75" width="120" height="32.5" as="geometry" />
        </mxCell>
        <mxCell id="ol4VCV9P4sQ5v68sOLEQ-114" value="&lt;i&gt;&lt;font color=&quot;#cc0000&quot;&gt;Mansion&amp;nbsp;&quot;sidequest&quot; mission&lt;br&gt;&lt;/font&gt;&lt;/i&gt;" style="text;html=1;align=center;verticalAlign=middle;resizable=0;points=[];autosize=1;strokeColor=none;fillColor=none;" parent="WIyWlLk6GJQsqaUBKTNV-1" vertex="1">
          <mxGeometry x="810" y="1095" width="180" height="30" as="geometry" />
        </mxCell>
        <mxCell id="ol4VCV9P4sQ5v68sOLEQ-115" value="Players lose lamp." style="rounded=1;whiteSpace=wrap;html=1;fillColor=#f8cecc;strokeColor=#b85450;" parent="WIyWlLk6GJQsqaUBKTNV-1" vertex="1">
          <mxGeometry x="680" y="1126.25" width="120" height="32.5" as="geometry" />
        </mxCell>
        <mxCell id="ol4VCV9P4sQ5v68sOLEQ-147" style="edgeStyle=orthogonalEdgeStyle;rounded=0;orthogonalLoop=1;jettySize=auto;html=1;entryX=0.5;entryY=0;entryDx=0;entryDy=0;" parent="WIyWlLk6GJQsqaUBKTNV-1" source="ol4VCV9P4sQ5v68sOLEQ-116" target="ol4VCV9P4sQ5v68sOLEQ-146" edge="1">
          <mxGeometry relative="1" as="geometry" />
        </mxCell>
        <mxCell id="uYWX3WhNX286cdWwJg3D-21" style="edgeStyle=orthogonalEdgeStyle;rounded=0;orthogonalLoop=1;jettySize=auto;html=1;entryX=0.869;entryY=0.5;entryDx=0;entryDy=0;entryPerimeter=0;" edge="1" parent="WIyWlLk6GJQsqaUBKTNV-1" source="ol4VCV9P4sQ5v68sOLEQ-116" target="uYWX3WhNX286cdWwJg3D-16">
          <mxGeometry relative="1" as="geometry" />
        </mxCell>
        <mxCell id="ol4VCV9P4sQ5v68sOLEQ-116" value="Players have Felinar (A)!" style="rounded=1;whiteSpace=wrap;html=1;fillColor=#d5e8d4;strokeColor=#82b366;" parent="WIyWlLk6GJQsqaUBKTNV-1" vertex="1">
          <mxGeometry x="670" y="1158.75" width="140" height="32.5" as="geometry" />
        </mxCell>
        <mxCell id="ol4VCV9P4sQ5v68sOLEQ-117" value="Players lose lamp." style="rounded=1;whiteSpace=wrap;html=1;fillColor=#f8cecc;strokeColor=#b85450;" parent="WIyWlLk6GJQsqaUBKTNV-1" vertex="1">
          <mxGeometry x="235" y="1126.25" width="120" height="32.5" as="geometry" />
        </mxCell>
        <mxCell id="ol4VCV9P4sQ5v68sOLEQ-144" style="edgeStyle=orthogonalEdgeStyle;rounded=0;orthogonalLoop=1;jettySize=auto;html=1;entryX=0.5;entryY=0;entryDx=0;entryDy=0;" parent="WIyWlLk6GJQsqaUBKTNV-1" source="ol4VCV9P4sQ5v68sOLEQ-118" target="ol4VCV9P4sQ5v68sOLEQ-143" edge="1">
          <mxGeometry relative="1" as="geometry" />
        </mxCell>
        <mxCell id="uYWX3WhNX286cdWwJg3D-20" style="edgeStyle=orthogonalEdgeStyle;rounded=0;orthogonalLoop=1;jettySize=auto;html=1;entryX=0;entryY=0.5;entryDx=0;entryDy=0;" edge="1" parent="WIyWlLk6GJQsqaUBKTNV-1" source="ol4VCV9P4sQ5v68sOLEQ-118" target="uYWX3WhNX286cdWwJg3D-16">
          <mxGeometry relative="1" as="geometry" />
        </mxCell>
        <mxCell id="ol4VCV9P4sQ5v68sOLEQ-118" value="Players have Felinar (B)!" style="rounded=1;whiteSpace=wrap;html=1;fillColor=#d5e8d4;strokeColor=#82b366;" parent="WIyWlLk6GJQsqaUBKTNV-1" vertex="1">
          <mxGeometry x="225" y="1158.75" width="140" height="32.5" as="geometry" />
        </mxCell>
        <mxCell id="ol4VCV9P4sQ5v68sOLEQ-128" value="&lt;i&gt;&lt;font color=&quot;#cc0000&quot;&gt;Switch:&lt;br&gt;Mansion -&amp;gt; Peaceful Mansion&amp;nbsp;&lt;br&gt;&lt;/font&gt;&lt;/i&gt;" style="text;html=1;align=center;verticalAlign=middle;resizable=0;points=[];autosize=1;strokeColor=none;fillColor=none;" parent="WIyWlLk6GJQsqaUBKTNV-1" vertex="1">
          <mxGeometry x="100" y="790" width="190" height="40" as="geometry" />
        </mxCell>
        <mxCell id="uYWX3WhNX286cdWwJg3D-3" style="edgeStyle=orthogonalEdgeStyle;rounded=0;orthogonalLoop=1;jettySize=auto;html=1;entryX=0.5;entryY=0;entryDx=0;entryDy=0;" edge="1" parent="WIyWlLk6GJQsqaUBKTNV-1" source="ol4VCV9P4sQ5v68sOLEQ-131" target="ol4VCV9P4sQ5v68sOLEQ-139">
          <mxGeometry relative="1" as="geometry" />
        </mxCell>
        <mxCell id="ol4VCV9P4sQ5v68sOLEQ-131" value="Find Mortessa&#39;s place" style="rounded=1;whiteSpace=wrap;html=1;" parent="WIyWlLk6GJQsqaUBKTNV-1" vertex="1">
          <mxGeometry x="-130" y="878.12" width="130" height="41.25" as="geometry" />
        </mxCell>
        <mxCell id="ol4VCV9P4sQ5v68sOLEQ-136" style="edgeStyle=orthogonalEdgeStyle;rounded=0;orthogonalLoop=1;jettySize=auto;html=1;" parent="WIyWlLk6GJQsqaUBKTNV-1" source="ol4VCV9P4sQ5v68sOLEQ-133" edge="1">
          <mxGeometry relative="1" as="geometry">
            <mxPoint x="295" y="990" as="targetPoint" />
          </mxGeometry>
        </mxCell>
        <mxCell id="ol4VCV9P4sQ5v68sOLEQ-133" value="Peaceful Mansion&lt;br&gt;(nothing else here)" style="rounded=1;whiteSpace=wrap;html=1;" parent="WIyWlLk6GJQsqaUBKTNV-1" vertex="1">
          <mxGeometry x="230" y="878.12" width="130" height="41.25" as="geometry" />
        </mxCell>
        <mxCell id="ol4VCV9P4sQ5v68sOLEQ-134" style="edgeStyle=orthogonalEdgeStyle;rounded=0;orthogonalLoop=1;jettySize=auto;html=1;" parent="WIyWlLk6GJQsqaUBKTNV-1" target="ol4VCV9P4sQ5v68sOLEQ-133" edge="1">
          <mxGeometry relative="1" as="geometry">
            <mxPoint x="110" y="898.7449999999999" as="sourcePoint" />
          </mxGeometry>
        </mxCell>
        <mxCell id="ol4VCV9P4sQ5v68sOLEQ-137" value="2 days passed" style="text;html=1;align=center;verticalAlign=middle;resizable=0;points=[];autosize=1;strokeColor=none;fillColor=none;" parent="WIyWlLk6GJQsqaUBKTNV-1" vertex="1">
          <mxGeometry x="302" y="940" width="100" height="30" as="geometry" />
        </mxCell>
        <mxCell id="ol4VCV9P4sQ5v68sOLEQ-138" value="Going inside with some guy.&lt;br&gt;Ambushed by Undead &amp;amp; Dragon &amp;amp; Mortessa?" style="text;html=1;align=center;verticalAlign=middle;resizable=0;points=[];autosize=1;strokeColor=none;fillColor=none;" parent="WIyWlLk6GJQsqaUBKTNV-1" vertex="1">
          <mxGeometry x="302" y="1040" width="270" height="40" as="geometry" />
        </mxCell>
        <mxCell id="ol4VCV9P4sQ5v68sOLEQ-156" style="edgeStyle=orthogonalEdgeStyle;rounded=0;orthogonalLoop=1;jettySize=auto;html=1;entryX=0.5;entryY=0;entryDx=0;entryDy=0;" parent="WIyWlLk6GJQsqaUBKTNV-1" source="ol4VCV9P4sQ5v68sOLEQ-139" target="ol4VCV9P4sQ5v68sOLEQ-152" edge="1">
          <mxGeometry relative="1" as="geometry" />
        </mxCell>
        <mxCell id="uYWX3WhNX286cdWwJg3D-4" style="edgeStyle=orthogonalEdgeStyle;rounded=0;orthogonalLoop=1;jettySize=auto;html=1;" edge="1" parent="WIyWlLk6GJQsqaUBKTNV-1" source="ol4VCV9P4sQ5v68sOLEQ-139">
          <mxGeometry relative="1" as="geometry">
            <mxPoint x="-200" y="1310.625" as="targetPoint" />
          </mxGeometry>
        </mxCell>
        <mxCell id="ol4VCV9P4sQ5v68sOLEQ-139" value="Raid Mortessa!" style="rounded=1;whiteSpace=wrap;html=1;" parent="WIyWlLk6GJQsqaUBKTNV-1" vertex="1">
          <mxGeometry x="-130" y="1290" width="130" height="41.25" as="geometry" />
        </mxCell>
        <mxCell id="ol4VCV9P4sQ5v68sOLEQ-145" style="edgeStyle=orthogonalEdgeStyle;rounded=0;orthogonalLoop=1;jettySize=auto;html=1;entryX=1;entryY=0.5;entryDx=0;entryDy=0;dashed=1;" parent="WIyWlLk6GJQsqaUBKTNV-1" source="ol4VCV9P4sQ5v68sOLEQ-143" target="ol4VCV9P4sQ5v68sOLEQ-139" edge="1">
          <mxGeometry relative="1" as="geometry" />
        </mxCell>
        <mxCell id="ol4VCV9P4sQ5v68sOLEQ-154" style="edgeStyle=orthogonalEdgeStyle;rounded=0;orthogonalLoop=1;jettySize=auto;html=1;entryX=0.5;entryY=0;entryDx=0;entryDy=0;" parent="WIyWlLk6GJQsqaUBKTNV-1" source="ol4VCV9P4sQ5v68sOLEQ-143" target="ol4VCV9P4sQ5v68sOLEQ-153" edge="1">
          <mxGeometry relative="1" as="geometry" />
        </mxCell>
        <mxCell id="ol4VCV9P4sQ5v68sOLEQ-143" value="Cult Hideout B" style="rounded=1;whiteSpace=wrap;html=1;" parent="WIyWlLk6GJQsqaUBKTNV-1" vertex="1">
          <mxGeometry x="230" y="1290" width="130" height="41.25" as="geometry" />
        </mxCell>
        <mxCell id="ol4VCV9P4sQ5v68sOLEQ-155" style="edgeStyle=orthogonalEdgeStyle;rounded=0;orthogonalLoop=1;jettySize=auto;html=1;entryX=0.5;entryY=0;entryDx=0;entryDy=0;" parent="WIyWlLk6GJQsqaUBKTNV-1" source="ol4VCV9P4sQ5v68sOLEQ-146" target="ol4VCV9P4sQ5v68sOLEQ-153" edge="1">
          <mxGeometry relative="1" as="geometry">
            <mxPoint x="740" y="1290" as="targetPoint" />
          </mxGeometry>
        </mxCell>
        <mxCell id="ol4VCV9P4sQ5v68sOLEQ-146" value="Hideout A" style="rounded=1;whiteSpace=wrap;html=1;" parent="WIyWlLk6GJQsqaUBKTNV-1" vertex="1">
          <mxGeometry x="675" y="1240" width="130" height="41.25" as="geometry" />
        </mxCell>
        <mxCell id="ol4VCV9P4sQ5v68sOLEQ-148" value="&lt;i&gt;&lt;font color=&quot;#cc0000&quot;&gt;Stateless location&lt;br&gt;Different from A&lt;br&gt;&lt;/font&gt;&lt;/i&gt;" style="text;html=1;align=center;verticalAlign=middle;resizable=0;points=[];autosize=1;strokeColor=none;fillColor=none;" parent="WIyWlLk6GJQsqaUBKTNV-1" vertex="1">
          <mxGeometry x="235" y="1331.88" width="120" height="40" as="geometry" />
        </mxCell>
        <mxCell id="ol4VCV9P4sQ5v68sOLEQ-149" value="&lt;i&gt;&lt;font color=&quot;#cc0000&quot;&gt;Stateless location&lt;br&gt;Different from B&lt;br&gt;&lt;/font&gt;&lt;/i&gt;" style="text;html=1;align=center;verticalAlign=middle;resizable=0;points=[];autosize=1;strokeColor=none;fillColor=none;" parent="WIyWlLk6GJQsqaUBKTNV-1" vertex="1">
          <mxGeometry x="805" y="1240" width="120" height="40" as="geometry" />
        </mxCell>
        <mxCell id="ol4VCV9P4sQ5v68sOLEQ-150" value="To get curse&lt;br&gt;powers, wait 2 days" style="text;html=1;align=center;verticalAlign=middle;resizable=0;points=[];autosize=1;strokeColor=none;fillColor=none;" parent="WIyWlLk6GJQsqaUBKTNV-1" vertex="1">
          <mxGeometry x="105" y="860" width="130" height="40" as="geometry" />
        </mxCell>
        <mxCell id="ol4VCV9P4sQ5v68sOLEQ-158" style="edgeStyle=orthogonalEdgeStyle;rounded=0;orthogonalLoop=1;jettySize=auto;html=1;entryX=0.5;entryY=0;entryDx=0;entryDy=0;" parent="WIyWlLk6GJQsqaUBKTNV-1" source="ol4VCV9P4sQ5v68sOLEQ-152" target="ol4VCV9P4sQ5v68sOLEQ-157" edge="1">
          <mxGeometry relative="1" as="geometry" />
        </mxCell>
        <mxCell id="ol4VCV9P4sQ5v68sOLEQ-152" value="Sedrik location piece 2" style="rounded=1;whiteSpace=wrap;html=1;" parent="WIyWlLk6GJQsqaUBKTNV-1" vertex="1">
          <mxGeometry x="-130" y="1430" width="130" height="41.25" as="geometry" />
        </mxCell>
        <mxCell id="ol4VCV9P4sQ5v68sOLEQ-159" style="edgeStyle=orthogonalEdgeStyle;rounded=0;orthogonalLoop=1;jettySize=auto;html=1;entryX=0.5;entryY=0;entryDx=0;entryDy=0;" parent="WIyWlLk6GJQsqaUBKTNV-1" source="ol4VCV9P4sQ5v68sOLEQ-153" target="ol4VCV9P4sQ5v68sOLEQ-157" edge="1">
          <mxGeometry relative="1" as="geometry" />
        </mxCell>
        <mxCell id="ol4VCV9P4sQ5v68sOLEQ-153" value="Sedrik location piece 1" style="rounded=1;whiteSpace=wrap;html=1;" parent="WIyWlLk6GJQsqaUBKTNV-1" vertex="1">
          <mxGeometry x="675" y="1430" width="130" height="41.25" as="geometry" />
        </mxCell>
        <mxCell id="ol4VCV9P4sQ5v68sOLEQ-161" style="edgeStyle=orthogonalEdgeStyle;rounded=0;orthogonalLoop=1;jettySize=auto;html=1;entryX=0.5;entryY=0;entryDx=0;entryDy=0;" parent="WIyWlLk6GJQsqaUBKTNV-1" source="ol4VCV9P4sQ5v68sOLEQ-157" target="ol4VCV9P4sQ5v68sOLEQ-160" edge="1">
          <mxGeometry relative="1" as="geometry" />
        </mxCell>
        <mxCell id="ol4VCV9P4sQ5v68sOLEQ-157" value="Sedrik location" style="rounded=1;whiteSpace=wrap;html=1;" parent="WIyWlLk6GJQsqaUBKTNV-1" vertex="1">
          <mxGeometry x="230" y="1530" width="130" height="41.25" as="geometry" />
        </mxCell>
        <mxCell id="ol4VCV9P4sQ5v68sOLEQ-160" value="The End" style="rounded=1;whiteSpace=wrap;html=1;fillColor=#dae8fc;strokeColor=#6c8ebf;" parent="WIyWlLk6GJQsqaUBKTNV-1" vertex="1">
          <mxGeometry x="230" y="1610" width="130" height="41.25" as="geometry" />
        </mxCell>
        <mxCell id="uYWX3WhNX286cdWwJg3D-1" style="edgeStyle=orthogonalEdgeStyle;rounded=0;orthogonalLoop=1;jettySize=auto;html=1;" edge="1" parent="WIyWlLk6GJQsqaUBKTNV-1" source="uYWX3WhNX286cdWwJg3D-0">
          <mxGeometry relative="1" as="geometry">
            <mxPoint x="30" y="900" as="targetPoint" />
          </mxGeometry>
        </mxCell>
        <mxCell id="uYWX3WhNX286cdWwJg3D-0" value="Mortessa&#39;s Ring!" style="rounded=1;whiteSpace=wrap;html=1;fillColor=#d5e8d4;strokeColor=#82b366;" vertex="1" parent="WIyWlLk6GJQsqaUBKTNV-1">
          <mxGeometry x="282" y="570" width="120" height="30" as="geometry" />
        </mxCell>
        <mxCell id="uYWX3WhNX286cdWwJg3D-2" value="&lt;i&gt;&lt;font color=&quot;#cc0000&quot;&gt;Clue helps narrow down locations&lt;br&gt;&lt;/font&gt;&lt;/i&gt;" style="text;html=1;align=center;verticalAlign=middle;resizable=0;points=[];autosize=1;strokeColor=none;fillColor=none;" vertex="1" parent="WIyWlLk6GJQsqaUBKTNV-1">
          <mxGeometry x="-165" y="636" width="200" height="30" as="geometry" />
        </mxCell>
        <mxCell id="uYWX3WhNX286cdWwJg3D-6" value="TP" style="shape=dataStorage;whiteSpace=wrap;html=1;fixedSize=1;fillColor=#e1d5e7;strokeColor=#9673a6;" vertex="1" parent="WIyWlLk6GJQsqaUBKTNV-1">
          <mxGeometry x="-15" y="440" width="60" height="32.5" as="geometry" />
        </mxCell>
        <mxCell id="uYWX3WhNX286cdWwJg3D-7" style="edgeStyle=orthogonalEdgeStyle;rounded=0;orthogonalLoop=1;jettySize=auto;html=1;entryX=0.75;entryY=0.5;entryDx=0;entryDy=0;entryPerimeter=0;" edge="1" parent="WIyWlLk6GJQsqaUBKTNV-1" source="ol4VCV9P4sQ5v68sOLEQ-16" target="uYWX3WhNX286cdWwJg3D-6">
          <mxGeometry relative="1" as="geometry" />
        </mxCell>
        <mxCell id="uYWX3WhNX286cdWwJg3D-11" style="edgeStyle=orthogonalEdgeStyle;rounded=0;orthogonalLoop=1;jettySize=auto;html=1;entryX=0.5;entryY=0;entryDx=0;entryDy=0;" edge="1" parent="WIyWlLk6GJQsqaUBKTNV-1" source="uYWX3WhNX286cdWwJg3D-9" target="ol4VCV9P4sQ5v68sOLEQ-73">
          <mxGeometry relative="1" as="geometry" />
        </mxCell>
        <mxCell id="uYWX3WhNX286cdWwJg3D-9" value="Players have lamp!" style="rounded=1;whiteSpace=wrap;html=1;fillColor=#d5e8d4;strokeColor=#82b366;" vertex="1" parent="WIyWlLk6GJQsqaUBKTNV-1">
          <mxGeometry x="680" y="680" width="120" height="32.5" as="geometry" />
        </mxCell>
        <mxCell id="uYWX3WhNX286cdWwJg3D-12" value="TP" style="shape=dataStorage;whiteSpace=wrap;html=1;fixedSize=1;fillColor=#e1d5e7;strokeColor=#9673a6;" vertex="1" parent="WIyWlLk6GJQsqaUBKTNV-1">
          <mxGeometry x="850" y="598.5" width="60" height="32.5" as="geometry" />
        </mxCell>
        <mxCell id="uYWX3WhNX286cdWwJg3D-14" value="TP" style="shape=dataStorage;whiteSpace=wrap;html=1;fixedSize=1;fillColor=#e1d5e7;strokeColor=#9673a6;" vertex="1" parent="WIyWlLk6GJQsqaUBKTNV-1">
          <mxGeometry x="185" y="473" width="60" height="32.5" as="geometry" />
        </mxCell>
        <mxCell id="uYWX3WhNX286cdWwJg3D-15" style="edgeStyle=orthogonalEdgeStyle;rounded=0;orthogonalLoop=1;jettySize=auto;html=1;entryX=0.767;entryY=0.477;entryDx=0;entryDy=0;entryPerimeter=0;" edge="1" parent="WIyWlLk6GJQsqaUBKTNV-1" source="ol4VCV9P4sQ5v68sOLEQ-21" target="uYWX3WhNX286cdWwJg3D-14">
          <mxGeometry relative="1" as="geometry" />
        </mxCell>
        <mxCell id="uYWX3WhNX286cdWwJg3D-16" value="Mortessa&#39;s Place TP" style="shape=dataStorage;whiteSpace=wrap;html=1;fixedSize=1;fillColor=#e1d5e7;strokeColor=#9673a6;" vertex="1" parent="WIyWlLk6GJQsqaUBKTNV-1">
          <mxGeometry x="450" y="1158.75" width="160" height="32.5" as="geometry" />
        </mxCell>
        <mxCell id="uYWX3WhNX286cdWwJg3D-19" value="" style="endArrow=none;html=1;rounded=0;" edge="1" parent="WIyWlLk6GJQsqaUBKTNV-1">
          <mxGeometry width="50" height="50" relative="1" as="geometry">
            <mxPoint x="590" y="1175" as="sourcePoint" />
            <mxPoint x="460" y="1175" as="targetPoint" />
          </mxGeometry>
        </mxCell>
      </root>
    </mxGraphModel>
  </diagram>
</mxfile>
